<svg xmlns="http://www.w3.org/2000/svg" width="295.673" height="320" viewBox="0 0 7823.02 8466.66" shape-rendering="geometricPrecision" text-rendering="geometricPrecision" image-rendering="optimizeQuality" fill-rule="evenodd" clip-rule="evenodd"><defs><style>.fil0{fill:#264796}</style></defs><g id="Слой_x0020_1"><path class="fil0" d="M54.54 234.62c-8.17 146.17-.71 311.15-.71 459.6v5991.42c0 147.76-7.62 312.79 1.25 458.42 4.36 71.82 27.83 120.86 59.3 175.7 27.06 47.21 73.52 113.47 110.22 136.25 52.66-43.98 108.26-94.75 162.54-145.42l171.92-137c887.88-693.18 2137.06-1070.02 3350.31-1070.56 404.17-.2 787.68 39.96 1166.8 112.47 328.42 62.78 700.51 168.37 981.71 285.54 470.32 196.01 639.94 292.21 1023.36 541.57 31.47 20.54 60.94 41.39 90.67 64.18 31.37 24.06 59.52 42.53 88.71 65.9 62.56 50.14 322.15 251.26 332.6 288.24 63.23-45.12 162.12-194.92 172.4-304.11 13.07-138.28 2.94-316.52 2.94-459.42V1158.41c0-307.99-6.69-622.66.66-929.61-15.09 13.65-22.65 29.09-36.04 44.82-82.89 97.39-199.85 166.88-333.27 207.18-497.22 149.85-1260.62 79.12-1782.89 67.05-435.75-10.17-1285.62-12.95-1546.73 340.05-86.32 116.79-141.09 276.81-151.54 439.31-27.62-7.69-20.05-26.26-23.75-56.53-37.85-306.29-176.44-507.27-520.43-617.6-635.75-203.8-1685.58-45.72-2403.46-86.66-303.91-17.33-688.9-60.26-880.47-291.36l-15.95-20.49-20.15-19.95zM6961 3615.01c85.06 31.77 145.13 96.89 177.53 180.28 32.61 84.08 20.26 231.78 20.41 329.31.82 374.1-.21 754.25 7.63 1128 4.2 202.16 187.76 125.77 213.51 86.91l24.24 8.19 23.96 33.4c22.65 24.32 80.27 84.82 89.41 106.26-24.39 23.29-32.29 29.04-57 47.85-141.27 107.16-272.17 240.58-435.05 319.95-251.69 122.79-483.28 5.41-493.19-267.93-9.7-266.73-11.22-536.85-14.21-804.67-1.58-133.37-3.32-266.58-4.63-399.46-1.36-134.9 34.25-296.57-155.53-264.25-30.27 26-37.13 18.71-110.05 87.56l-374.21 346.09c-29.84 27.1-21.02 36.28-20.53 83.19l5.5 599.09c13.07 248.22 176.87 125.03 222.17 105.13 27.39 19.65 123.89 132.96 129.61 147.45-56.96 53.91-224.14 180.83-293.46 238.3-71.06 58.82-217.27 163.89-359.78 177.84-165.11 16.13-285.89-96.44-319.43-211.34-31.15-106.61-15.03-368.54-25.87-416.88-5.23-22.84-13.6-26.61-26.95-42.34-58.32 14.79-66.6 33.45-97.79 65.32l-259.64 238.99c-129.83 103.68-432.16 379.4-634.85 367.24-105.47-6.35-176.53-66.55-216.34-120.01-74.71-100.61-65.95-278.5-68.33-414.55-.94-48.54 9.19-107.85-30.33-131.38-48.03-9.98-110.22 76.68-142.3 102.04-60.55 47.95-144.15 136.85-199.52 182.31l-216.9 172.44c-77.76 59.6-208.51 152.37-325.85 190.59-166.52 54.3-306.2-22.68-369.41-119.42-68.46-104.58-59.32-289.07-63.83-426.6-10.51-318.66-4.85-660.05-2.4-980.34.44-66.3 16.45-180.56-29.29-221.27-70.63-62.64-173.87 15.98-191.19 21.85-27.28-27.45-116.6-109.2-128.68-136.51 138.1-118.32 377.76-333.63 531.58-395.08 156.84-62.73 211.67-14.75 272.88-16.78l3.87 3.13 3.91 2.93 52.17 29.98c162.93 106.26 136.84 314.44 135.75 465.12l-.37 1016.16c.86 92.02-19.82 242.92 95.61 246.99 58.43 2.03 96.23-31.73 126.89-54.85 92.74-69.84 298.03-246.69 381.77-327.44 24.95-24.07 72.71-57.77 73.58-99.22 2.13-110.93 0-224 .37-335.23.82-271.65 14.11-1985.08-5.44-2012.23 1.75-49.19-22.27-69.34-61.91-84.57-119.15-4.72-168.54 69.68-264.93 157.58L2029.55 4014.61c-518.9 482.6-1148.34 1044.12-1688.42 1544.67-16.23 15.05-33.32 40.6-56.2 42.88l-1.09-220.81c-.44-36.74-4.62-37.53 17.54-57.93 57.34-52.86 110.32-100.26 167.78-152.58l3179.48-2893.38 178.45-142.7c104.12-72.32 251.37-219.93 461.18-188.06 93.71 14.39 155.68 64.62 196.25 120.46 57.99 80.21 60.07 145.88 59.95 254.28-.27 203.65-.92 407.1-.87 610.8.12 409.14-1.24 818.52.72 1227.61l.64 104.87c47.98 9.48 79.84-36.67 104.13-59.06 76.83-70.83 186.88-176.65 261.48-237.4 112.84-91.93 256.59-218.94 376.84-290.77 279.77-166.97 564.52-73.59 564.24 276.82 0 49.18-5.71 282.86 3.77 310.86 34.41 6.21 38 .5 78.19-33.9 20.64-17.73 36.98-34.99 57.01-53.86 175.41-165.68 401.77-374.54 608.97-502.2 98.35-60.55 223.32-105.97 361.41-60.2zm-5148.4-1737.3c64.91-30.28 146.71-89.79 210.79-130.1 137.33-86.3 542.92-369.08 669.41-386.95-8.17 42.4-43.34 64.24-70.29 90.54 43.07 3.33 84.07-3.18 116.86 18.36-8.77 45.18-45.64 63.93-67.04 89.3 52.93 2.13 70.35 1.58 117.67 13.65-10.07 50.28-49.22 66.71-70.84 94.55 45.26-.69 81.51-1.54 119.04 14.88-7.73 46.26-50.31 64.83-70.09 92.14 53.16-.7 71.56.49 118.34 11.55-22 44.98-183.95 71.09-229.97 81.4-173.71 39.07-353.25 63.59-530.5 91.24-77.32 12.1-192.44 24.71-263.82 43.98 92.13 28.53 615.61 98.01 782.73 132.71 44.44 9.28 209.43 38.17 241.94 68.99l-3.71 3.14c-7.41 22.43-95.3 15.23-113.59 15.57 20.47 20.85 64.14 51.68 70.3 92.97-50.1 14.04-64.31 12.46-120.45 14.04 20.21 15.39 68.51 54.95 69.26 91.58-33.43 17.67-73.07 15.59-112.99 15.19 24.08 38.72 55.92 42.74 67.36 91.98-40.35 15.93-66.21 16.08-118.49 15.03l38.5 38.86c16.28 15.79 25.15 27.16 31.69 52.71-144.25-9.97-533.38-288.22-675.39-376.47-70.58-43.77-140.99-97.88-215.44-134.66 40.08 72.52 244.13 321.84 297.71 388.73 47.22 58.68 260.78 339.71 273.04 413.81-44.98-2.67-79.5-44.32-100.3-63.87-1.26 45 1.96 69.13-16.67 108.75-43.12-3.38-77.88-46.12-101.45-62.85-.27 36.58 3.54 79.27-18.84 106.61-50.65-6.44-67.52-43.72-98.67-60.1-.93 41.5-1.75 72.22-16.23 105.93-34.47-4.67-93.71-50.34-100.09-66.27-6.97 44.32-1.52 65.32-14.86 109.99-50.59-23.32-75.27-154.96-88.12-205.19-40.01-156.9-70.78-320.24-100.08-479.42l-51.35-237.95-3.06-4.76c-29.94 157.59-60.54 318.15-90.93 476.79-26.03 135.74-59.68 268.97-99.86 401.94l-9.16 26.76c-8.27 16.86-6.14 12.5-17.15 22.13l-6.59-7.01-7.13-12.05c-10.95-27.15-5.82-60.26-6.98-88.26-21.89 19.71-56.35 59.17-102.09 64.23-12.42-37.47-13.41-64.86-15.36-109.34-19.17 24.62-65.57 58.27-98.51 65.67-18.9-27.3-19.6-67.86-18.63-106.52l-14.7 8.33c-28.53 19.52-42.25 47.21-84.35 52.62-21.84-27.64-19.32-69.54-18.89-107.21-34.79 20.74-42.64 52.61-100.42 64.23 12.91-156.95 467.38-642.52 562.13-806.06-28.25 12.45-77.27 46.26-105.79 64.47l-316.83 204.7c-68.66 41.98-376.22 246.18-463.89 240.22 13.46-45.22 47.26-61.99 70.52-88.79-42.53-.89-83.26 2.97-116.7-17.18 6.11-42.33 46.24-57.92 65.78-90.33-43.62.2-83.96-2.44-116.31-15.59 5.66-29.77 55.6-82.64 72.69-90.52-51.23-5.26-71.06-2.44-121-13.45 6.44-40.46 38.78-70.09 70.64-93.52-38.28-3.32-96.12 5.26-118-19.61 64.96-68.15 855.8-159.37 1019.76-202.6-164.78-35.89-355.25-57.63-525.04-85.28-130.6-20.99-257.91-45.86-385.27-77.92-28.76-7.2-59.58-13.85-84.79-27.99-22.76-12.61-15.35-5.82-23.69-25.57 47.38-9.47 65.56-10.02 118.44-11.07-20.92-20.84-64.8-51.27-70.29-93.66 50.14-12.8 64.69-11.37 119.68-13.49-23.91-17.13-61.59-52.37-71.65-89.64 29.51-15.93 74.82-17.67 117.06-16.83-18.62-33.6-66.75-48.84-65.56-93.81 41.77-14.74 69.15-13.85 115.55-13.5-20.25-30.48-58.31-41.15-69.85-91.78 135.15 20.7 600.51 340.74 764.59 443.04 35.18 21.89 71.65 49.69 110.27 65.82-13.94-28.75-49.72-71.28-69.92-96.65-96.11-121.35-479.04-592.18-481.82-703.36 46.07 9.43 75.26 44.27 98.57 64.58 2.34-39.02-3.7-77.88 20.03-106.96 49.78 7.54 69.44 42.72 98.41 61.09.86-48.34-.17-65.11 15.47-106.81 54.44 9.14 70.83 44.68 103.17 64.63-1.14-42.74 3.61-71.97 12.53-108.21 56.1 6.3 72.59 44.62 104.88 63.88-.75-34.99-6.59-85.61 19.88-107.31 60.33 46.75 197.29 789.19 220 923.1 21.29-34.5 82.12-401.84 97.15-476.24 19.06-94.4 79.22-400.45 132.6-444.08 8.76 4.02 16.44-1.39 21.61 43.43 2.45 21.19 1.36 42.19 1.64 63.23 22.21-21.04 55.31-58.31 103.56-65.17 10.35 34 14.33 64.97 13.72 105.43 43.46-23.29 47.98-50.93 100.59-61.3 22.26 40.65 12.8 61.14 19.16 108.6 30.93-23.13 52.12-58.87 101.94-62.89 10.19 34.35 14.48 67.26 13.94 107.86 28.59-17.53 50.75-60.21 99.6-64.08-3.32 83.68-331.41 503.05-415.22 609.7-50.26 63.89-96.86 132.18-145.5 195.57zm4102.11 15.09l97.87-1.6c12.24 19.61 58.48 52.37 104.28 109.6 183.39 229.06 210.67 561.22 77 817.03-34.16 65.27-145.3 228.07-209.55 228.07l-69.97-1.63c21.56-51.03 75.96-93.07 132.38-249.02 72.96-202.07 72.74-447.21 1.24-649.47-16.44-46.56-36.75-92.62-59.19-133.91-19.98-36.97-64.47-92.32-74.06-119.07zm-540.84.84c105.76-13.11 116.98 11.42 160.86 62.19 118.28 136.89 186.94 271.55 198.6 465.03 7.78 130.14-17.65 261.08-68.01 367.54-35.78 75.79-80.38 140.21-135.49 199.58-20.14 21.54-37.41 31.87-59.03 56.43l-97.36.45c25.11-58.67 77.1-93.91 131.84-249.61 95.45-271.4 68.22-599.19-94.27-844.18-11-16.63-27.61-44.97-37.14-57.43zm1084.41-1.88c20.1 0 41.66-.9 61.53-.56 31.16.56 30.22.16 47.48 16.14 163.75 151.44 251.2 328.13 251.42 560.82.12 216.75-86.31 420.8-250.92 561.37-23.8 20.29-70.03 21.58-110.33 12.55 15.85-35.43 78.86-95.8 131.79-245.79 181.87-516-117.9-861.65-130.97-904.53z"/><path class="fil0" d="M7771.12 46.55l-53.31-3.87c-271.23 6.15-628.46.19-902.25.19h-5786.5c-319.6 0-649.92 7.35-968.21-.54 175.67 241.27 666.58 269.12 953.77 284.01 411.68 21.19 825.97-3.48 1238.79-10.33 341.32-5.61 864.36-16.82 1159.28 84.93 484.98 167.41 465.05 624.74 499.24 701.98 37.85-356.68 192.39-595.17 490.26-699.7 298.95-104.73 818.39-93.31 1166.47-87.21 522.38 9.28 1286.81 58.12 1794.98-55.84 163.2-36.63 276.09-88.44 378.35-195.61 18.9-19.75 2.23-12.6 29.13-18.01zM2583.3 7600.75c381.94 66.06 877.86 90.88 1277.72 91.87l.16-26.01c.71-160.17 7.13-795.54-1.8-909.2-182.85-2.18-361.3-7.79-542.15-20.25-59.19-4.12-74.82-17.13-110.54 18.61l-32.34 35.34c-206.6 220.48-339.09 369.23-497.34 638.99-25.1 42.69-79.5 127.46-93.71 170.65zm1378.08-843.19l-1.75 934.76c285.13 3.58 679.22-21.19 968.86-52.71 95.35-10.42 216.4-20 306.69-39.21-30.77-75.05-92.68-170.64-135-238.15-48.95-78.17-98.83-153.96-152.69-224.89-117.84-154.96-144.68-178.04-261.38-307.93-18.24-20.4-23.63-26.41-45.14-46.91-16.45-15.53-33.87-34.09-46.45-51.07-100.74 1.89-208.45 13.55-311.21 18.07-108.14 4.66-213.73 5.95-321.93 8.04zm757.46-38.52c2.18 7.79 147.84 166.48 172.02 193.92 97.97 111.58 235.95 301.33 312.95 431.38l136.08 239.78c119.59-2.04 963.74-182.41 1016.78-223.31-101.45-99.17-215.37-191.98-320.25-276.26-186.56-149.8-426.87-296.12-650.29-411.62-47.54-24.62-52.93-37.87-114.79-26.8-178.56 32.11-367.9 55.64-552.5 72.91zm-3253.55 648.13c70.14 12.31 168.1 45.36 241.13 63.53 159.33 39.76 635.32 145.92 779.57 154.66 29.29-90.78 214.66-373.1 277.39-458.22 53.36-72.37 106.84-143.75 163.8-209.01l177.85-198.69c-181.07-16.38-374.6-40.7-551.96-72.62-60.66-11.01-64.58-1.88-111.03 22.89-36.7 19.7-66.05 34.74-101.77 54.1-65.95 35.68-132.6 75.64-193.59 111.33-156.94 91.82-340.4 232.63-483.23 346.64-33.33 26.71-181.44 160.47-198.16 185.39zm3603.86-3250.61c-69.43 15.99-190.76 153.62-274.46 221.87-31.2 25.56-245.64 219.43-249.78 240.43l-1.41 703.07c2.17 63.18 64.96 123.94 140.38 95 41.17-15.73 388.26-347.69 453.39-409.04 106.46-100.26 76.62-49.23 75.47-285.2-.38-78.32-1.25-156.64-1.96-234.97-.98-118.57 34.69-371.96-141.63-331.16z"/><path class="fil0" d="M3958.16 8416.09c18.3-9.98 121.11-132.18 149.37-163.5l100.91-107.8c67.09-57.78 72.86-75.74 168.15-146.32 294.06-217.8 695.01-211.54 1066.55-231.8 206.6-11.26 1213.19 0 1280.23-37.02l-36.98 1.29c-31.75-50.58-219.4-268.38-257.51-292.8-78.31 16.23-171.32 47.75-252.67 68.7-85.33 21.89-167.34 41.05-254.85 61.2-178.56 41.05-356.84 64.92-540.14 103.09l39.1 93.71-99.7 2.78c-18.57-24.08-24.78-57.83-45.15-80.46-101.77 8.19-211.44 27.35-315.45 38.86-327 36.24-665.22 53.81-995.54 55.94-23.31 61.6 4.79 519.38-6.32 634.13zm-2857.39-685.85c71.45 35.84 1064.75 26.06 1275.11 36.29 137.61 6.65 280.11 10.02 418.86 23.52 575.48 56.04 703.17 229.96 1015.91 571.69l24.88 30.03 26.52 32.56-.98-638.5c-41.82-10.67-279.62-8.63-344.53-11.21-220.49-8.74-445.88-24.47-664.24-48.7-100.52-11.16-220.16-33.1-315.56-37.62l-38.66 80.51-97.37-5.01 39.32-91.88c-185.91-33.4-361.64-62.19-544.22-102.69l-514.32-127.71-199.69 229.26c-23.09 28.44-31.09 62.19-81.03 59.46zm4361.21-1115.03c20.75 17.96 103.68 58.62 135.16 76.88 149.37 86.86 252.56 150.54 393.49 252.19 187.16 135.06 297.97 234.67 464.06 388.84 60.01-4.67 553.42-180.77 584.73-206.78-323.84-222.66-713.19-432.71-1110.87-577.84-97.2-35.49-70.47-23.48-228.93 12.85-50.64 11.67-206.06 37.18-237.64 53.86zM783.36 7126.19l10.94 8.19c56.14 33.6 528.32 194.62 569.81 198.19 141.37-137.24 295.64-266.83 464.01-388.39 77.54-55.93 168.16-118.87 256.59-171.38 42.86-25.47 86.04-51.57 132.87-78.53 30.88-17.76 118.44-59.9 140.11-79.06-27.82-14.94-265.46-58.97-345.24-79.96-64.42-16.88-59.79-9.38-116.91 12.26-319.71 120.41-662.28 282.61-940.87 463.93-36.92 24.02-145.72 91.37-171.31 114.75zm6009.82 597.8c134.39-13.55 274.28-38.96 400.56-71.08 89.53-22.68 285.78-92.76 329.67-140.26-15.68-7.3-365.66-320.74-398.55-321.29l-288.72 112.33c-49.39 18.41-98.18 33.85-149.15 51.76-40.19 14.1-123.07 35.19-155.03 52.76l13.07 17.38c53.8 61.79 233.66 252.09 248.15 298.4zM297.4 7511.95c41.77 48.59 238.24 116.29 323.25 138.88 127.31 33.85 270.36 59.06 405.52 72.91 11.05-47.95 246.08-290.66 260.84-316.07-129.93-36.48-321.78-106.67-451.98-157.39-45.68-17.77-102.26-45.47-147.3-57.63-57.12 42.79-257.67 197.9-296.5 239.14-16.61 17.72-74.11 74.75-93.83 80.16zm4872.87-941.91c-185.53-96.79-530.99-206.28-751.58-266.39-74.39-20.25-203.06-56.93-279.03-64.82l53.37 41.44c17.8 12.91 36.05 25.52 54.18 38.77l355.8 292.54c22.33 19.91 17.21 27.2 62.03 23.03 58.16-5.51 116.1-11.31 174.63-17.91 61.86-7.05 289.43-30.18 330.6-46.66zm-2517.65-1.89c33.38 19.76 271.89 42.19 332.17 48.94 58.48 6.6 116.7 12.56 174.69 17.82 50.81 4.57 52.55-15.53 111.52-67.1l306.64-249.17c29.78-22.43 82.98-53.65 106.56-80.16-71.99 6.36-207.58 45.86-278.2 64.68-221.63 59.16-425.51 128.45-634.67 214.32-40.3 16.48-81.3 37.47-118.71 50.67zm676.76 80.16c108.31 6.21 444.4 33.01 531.2 16.88l.6-424.77c-43.29 5.21-516.34 366.85-531.8 407.89zm630.25-379.7l.11 399.06c179.43.94 358.7-8.83 535.35-19.65-8.06-21.35-39.54-39.91-57.89-55.89l-260.51-208.91c-24.34-18.22-41.33-31.08-68.23-49.34-31.31-21.34-120.51-84.88-148.83-96.74v31.47zM2128 6468.34c21.46 14.34 294 66.76 340.45 73.9 51.79 8 106.46-32.46 150.46-52.01 127.1-56.68 692.12-278.05 764.43-270.51-156.23-16.43-766.17 109.89-966.08 162.7-55.48 14.74-249.18 66.16-289.26 85.92zm3561.17 0c-82.67-40.95-465.32-131.48-574.12-153.27-193.48-38.72-445.65-86.86-648.82-95.55 9.47 7.3.92 3.28 19.33 11.17l288.12 90.04c140.27 48.49 295.9 109.74 431.28 170.74 40.84 18.41 96.43 58.47 145.12 51.22 55.21-8.24 115.93-22.28 170.11-33.35l155.74-34.85 13.24-6.15z"/></g></svg>